<?xml version="1.0" encoding="utf-8"?>
<svg id="master-artboard" viewBox="0 0 1400 980" version="1.1" xmlns="http://www.w3.org/2000/svg" x="0px" y="0px" style="enable-background:new 0 0 1400 980;" width="1400px" height="980px">

<path d="M 732.7999877929688 477 L 1035.9000244140625 354.3999938964844 L 1053.9000244140625 207.8000030517578 L 1269.9000244140625 0 L 732.7999877929688 0 Z" class="st0" style="fill: rgb(255, 208, 56);"/>
<g>
	<path d="M 615 0 L 732.7999877929688 0 L 732.7999877929688 726.5 L 660.7999877929688 980 L 393.79998779296875 980 L 553 632.7999877929688 L 485 262.29998779296875 Z" class="st1" style="fill: rgb(73, 255, 200);"/>
	<path d="M 566.5999755859375 97.69999694824219 L 661.7000122070312 225.5 L 732.7999877929688 182.89999389648438 L 732.7999877929688 0 L 615 0 Z" class="st2" style="fill: rgb(35, 175, 128);"/>
	<g>
		<path class="st2" d="M589.4,679.9L589.4,679.9c4.2-2.2,9.1-2.3,13.4-0.4l21.6,9.5c3.6,1.6,7.6,1.7,11.3,0.5l5.4-1.9&#10;&#9;&#9;&#9;c12.5-4.4,24.4,8,19.5,20.3l-8.3,21.1c-3.7,9.4-15.2,12.8-23.4,6.9l-41.4-29.7C578.1,699.5,579.1,685.2,589.4,679.9z" style="fill: rgb(35, 175, 128);"/>
		<path class="st2" d="M596.7,216.8L596.7,216.8c3.2-0.2,6.2,1.1,8.4,3.5l10.7,12c1.8,2,4.2,3.2,6.9,3.5l3.8,0.4&#10;&#9;&#9;&#9;c8.9,0.8,12.8,11.8,6.3,18l-11.1,10.7c-4.9,4.7-13,3.6-16.4-2.3l-17.2-30C584.2,225.7,588.9,217.2,596.7,216.8z" style="fill: rgb(35, 175, 128);"/>
		<path class="st2" d="M596.3,446.4L596.3,446.4c-0.4,3.2-2.1,6-4.8,7.7l-13.5,8.6c-2.2,1.4-3.9,3.7-4.5,6.2l-1,3.7&#10;&#9;&#9;&#9;c-2.3,8.7-13.7,10.7-18.8,3.3l-8.8-12.6c-3.9-5.6-1.5-13.4,4.9-15.8l32.3-12.1C589.5,432.6,597.1,438.6,596.3,446.4z" style="fill: rgb(35, 175, 128);"/>
		<path class="st2" d="M465,915L465,915c1.1-4.6,4.1-8.4,8.4-10.4l21.3-10.2c3.5-1.7,6.3-4.7,7.7-8.3l2.1-5.3&#10;&#9;&#9;&#9;c4.8-12.3,21.9-13.3,28.1-1.6l10.6,20c4.7,8.9-0.2,19.9-10,22.3l-49.4,12.1C472.5,936.3,462.4,926.2,465,915z" style="fill: rgb(35, 175, 128);"/>
		<path class="st2" d="M665.6,466.2l-14.7,23.8c-6.5,10.6-0.7,24.4,11.4,27.2l30.8,7.1c15.1,3.5,27.3-12.4,20.1-26.1l-16.2-30.8&#10;&#9;&#9;&#9;C690.5,454.8,673,454.2,665.6,466.2z" style="fill: rgb(35, 175, 128);"/>
		<path class="st2" d="M538.4,335l37.2,18.3c1.8,0.9,3.9,1.3,5.9,1.1l56.5-5.1c8.1-0.7,12.7-9.7,8.7-16.7v0&#10;&#9;&#9;&#9;c-1.4-2.5-3.8-4.3-6.5-5.1l-83.8-24.7c-4.2-1.2-8.8,0.1-11.6,3.4l-9.9,11.6C530.1,323.2,531.9,331.7,538.4,335z" style="fill: rgb(35, 175, 128);"/>
		<path class="st2" d="M636.9,852.1l19-12.6c0.9-0.6,1.7-1.5,2.2-2.5l13.2-28.2c1.9-4.1-1-8.7-5.5-8.7l0,0c-1.6,0-3.1,0.6-4.2,1.7&#10;&#9;&#9;&#9;l-34.9,32.9c-1.8,1.7-2.4,4.2-1.6,6.5l2.7,7.9C629,852.8,633.5,854.3,636.9,852.1z" style="fill: rgb(35, 175, 128);"/>
		<path class="st2" d="M629.8,86.4l13.8-10.2c6.4-4.8,15-5.5,22.1-1.8l8.3,4.3c5.7,2.9,9.7,8.3,10.9,14.6l6.7,34.6&#10;&#9;&#9;&#9;c0.3,1.3,0.6,2.6,1.1,3.8l9,22.6c4.5,11.2-1.4,23.8-12.8,27.6h0c-8.9,3-18.6-0.3-23.9-8.1l-40-58.9&#10;&#9;&#9;&#9;C618.7,105.6,620.8,93,629.8,86.4z" style="fill: rgb(35, 175, 128);"/>
	</g>
	<path d="M 232.60000610351562 0 L 615 0 L 485 262.29998779296875 L 553 632.7999877929688 L 393.79998779296875 980 L 297.79998779296875 980 Z" class="st3" style="fill: rgb(255, 252, 203);"/>
	<path d="M 295.799988 63.599998 L 377.299988 63.599998" class="st4" style="fill: rgb(226, 222, 183);"/>
	<path class="st4" d="M357.4,519l30.2,38c3.6,4.5,0.4,11.1-5.3,11.1l-39.2,0.1c-4.4,0-7.7-4.1-6.7-8.4l9-38.2&#10;&#9;&#9;C346.7,516.1,353.9,514.5,357.4,519z" style="fill: rgb(226, 222, 183);"/>
	<path d="M 520.799988 545 A 33 33 0 0 1 487.799988 578 A 33 33 0 0 1 454.799988 545 A 33 33 0 0 1 487.799988 512 A 33 33 0 0 1 520.799988 545 Z" class="st4" style="fill: rgb(226, 222, 183);"/>
	<path d="M 544.799976 66.099998 A 27.200001 27.200001 0 0 1 517.599976 93.299999 A 27.200001 27.200001 0 0 1 490.399975 66.099998 A 27.200001 27.200001 0 0 1 517.599976 38.899998 A 27.200001 27.200001 0 0 1 544.799976 66.099998 Z" class="st4" style="fill: rgb(226, 222, 183);"/>
	<path class="st4" d="M307.3,389.2l3.4,19.3c1.2,6.8,7.8,11.2,14.5,9.8l88.4-19.3c7-1.5,11.1-8.8,8.9-15.6v0&#10;&#9;&#9;c-1.6-5-6.3-8.4-11.5-8.4h-91.8C311.7,375,306,381.8,307.3,389.2z" style="fill: rgb(226, 222, 183);"/>
	<path d="M 481.899994 727.700012 L 436.399994 701.599976" class="st4" style="fill: rgb(226, 222, 183);"/>
	<path class="st4" d="M401,780.8c-0.2-0.3-25.2,7.3-25.2,7.8" style="fill: rgb(226, 222, 183);"/>
	<path class="st4" d="M430.6,223.4c0.6-10.1-9.4-6-15.6,2l-2.8-9" style="fill: rgb(226, 222, 183);"/>
	<path d="M 246.89999389648438 214.3000030517578 L 487.5 409.6000061035156 L 264.3999938964844 477 Z" class="st4" style="fill: rgb(226, 222, 183);"/>
	<path d="M 297.79998779296875 980 L 0 980 L 0 0 L 232.60000610351562 0 Z" class="st5" style="fill: rgb(75, 108, 125);"/>
	<path class="st6" d="M69.2,154.7c-13.2,6.3-21.4,3.9-24.5-2.6s0.1-14.5,13.3-20.8c13.2-6.3,36.4-11.1,39.5-4.6&#10;&#9;&#9;C100.6,133.1,82.4,148.3,69.2,154.7z" style="fill: rgb(54, 81, 91);"/>
	<path class="st6" d="M173.1,108.7c4.3,14,11.7,18.4,18.6,16.3c6.9-2.1,10.6-9.9,6.3-23.9c-4.3-14-16.6-34.3-23.5-32.2&#10;&#9;&#9;C167.7,71,168.8,94.7,173.1,108.7z" style="fill: rgb(54, 81, 91);"/>
	<path class="st6" d="M149.9,728.8c9.8,4.7,16,2.9,18.3-2c2.3-4.8-0.1-10.8-9.9-15.5s-27.2-8.3-29.5-3.4&#10;&#9;&#9;C126.5,712.7,140.1,724.1,149.9,728.8z" style="fill: rgb(54, 81, 91);"/>
	<path class="st6" d="M87.5,505.4c9.8,4.7,16,2.9,18.3-2c2.3-4.8-0.1-10.8-9.9-15.5s-27.2-8.3-29.5-3.4S77.6,500.6,87.5,505.4z" style="fill: rgb(54, 81, 91);"/>
	<path class="st6" d="M71.7,592.1l-2.5,18.2c-0.5,3.8-4.2,6.3-8,5.4L45.8,612c-5.2-1.3-6.7-8-2.5-11.4l18-14.5&#10;&#9;&#9;C65.8,582.5,72.5,586.3,71.7,592.1z" style="fill: rgb(54, 81, 91);"/>
	<path class="st6" d="M179.4,864.7l25.3,10c5.3,2.1,7.6,8.3,5,13.3l-10.9,21c-3.7,7.1-13.9,6.9-17.2-0.4l-14.5-31&#10;&#9;&#9;C163.5,869.8,171.3,861.5,179.4,864.7z" style="fill: rgb(54, 81, 91);"/>
	<path class="st6" d="M86.4,385.6c0-3.9-2.8-7.2-6.5-8c-0.8-3.7-4.1-6.5-8-6.5c-4.2,0-7.7,3.2-8.2,7.3c0,0,0,0-0.1,0&#10;&#9;&#9;c-4.6,0-8.2,3.7-8.2,8.2c0,3.5,2.1,6.4,5.2,7.6c0.8,3.8,4.1,6.6,8.1,6.6c1.1,0,2.2-0.2,3.2-0.7c1.5,1.8,3.8,2.9,6.3,2.9&#10;&#9;&#9;c4.6,0,8.2-3.7,8.2-8.2c0-1.7-0.5-3.3-1.4-4.6C85.8,388.9,86.4,387.3,86.4,385.6z" style="fill: rgb(54, 81, 91);"/>
	<path class="st6" d="M191.7,668.7c3.9,0.8,7.6-1.3,9.1-4.8c3.8-0.1,7.1-2.8,7.9-6.6c0.8-4.1-1.6-8.2-5.5-9.4c0,0,0,0,0-0.1&#10;&#9;&#9;c0.9-4.5-2-8.8-6.5-9.7c-3.4-0.7-6.7,0.8-8.5,3.6c-3.8,0-7.3,2.7-8,6.6c-0.2,1.1-0.2,2.2,0,3.3c-2,1.1-3.6,3.1-4.1,5.6&#10;&#9;&#9;c-0.9,4.5,2,8.8,6.5,9.7c1.7,0.3,3.3,0.1,4.8-0.5C188.6,667.5,190,668.4,191.7,668.7z" style="fill: rgb(54, 81, 91);"/>
	<path class="st6" d="M163.3,542.7l27.6,4.4c5,0.8,9-4,7.5-8.8l-5.7-17.4c-1.8-5.7-9.6-6.3-12.4-1.1l-0.9,1.6&#10;&#9;&#9;c-0.8,1.5-2.1,2.6-3.6,3.2l-13.8,5.1C155.4,532.1,156.4,541.6,163.3,542.7z" style="fill: rgb(54, 81, 91);"/>
	<path class="st6" d="M69.8,267.4l36.3,16.8c6.5,3,14-1.9,13.7-9.1l-1-26.1c-0.3-8.5-10.7-12.5-16.6-6.3l-1.8,1.9&#10;&#9;&#9;c-1.6,1.7-3.9,2.8-6.2,2.9l-21,1.6C63.2,249.7,60.8,263.2,69.8,267.4z" style="fill: rgb(54, 81, 91);"/>
	<path class="st6" d="M47.9,888.2l13,24.8c2.3,4.5,8.6,4.9,11.5,0.8l10.6-14.9c3.4-4.9-0.6-11.5-6.5-10.6l-1.8,0.3&#10;&#9;&#9;c-1.6,0.2-3.3-0.1-4.7-1l-12.3-8.1C51.8,875.6,44.7,882,47.9,888.2z" style="fill: rgb(54, 81, 91);"/>
	<path class="st6" d="M28.4,769.6l15.1-1c3.2-0.2,5.8,2.4,5.7,5.5l-0.4,13.2c-0.1,4.4-5.3,6.8-8.8,4l-14.7-12.1&#10;&#9;&#9;C21.6,776,23.5,769.9,28.4,769.6z" style="fill: rgb(54, 81, 91);"/>
	<path class="st7" d="M65.1,149.6c-13.2,6.3-21.4,3.9-24.5-2.6s0.1-14.5,13.3-20.8s36.4-11.1,39.5-4.6&#10;&#9;&#9;C96.5,128,78.3,143.2,65.1,149.6z" style="fill: rgb(255, 171, 186);"/>
	<path d="M 62.000001 139.800003 A 5.8 5.8 0 0 1 56.200001 145.600003 A 5.8 5.8 0 0 1 50.400001 139.800003 A 5.8 5.8 0 0 1 56.200001 134.000003 A 5.8 5.8 0 0 1 62.000001 139.800003 Z" class="st8" style="fill: rgb(100, 1, 32);"/>
	<path class="st7" d="M169,103.6c4.3,14,11.7,18.4,18.6,16.3c6.9-2.1,10.6-9.9,6.3-23.9c-4.3-14-16.6-34.3-23.5-32.2&#10;&#9;&#9;C163.5,65.9,164.7,89.6,169,103.6z" style="fill: rgb(255, 171, 186);"/>
	<path d="M 187.999997 103.599998 A 5.8 5.8 0 0 1 182.199997 109.399999 A 5.8 5.8 0 0 1 176.399997 103.599998 A 5.8 5.8 0 0 1 182.199997 97.799998 A 5.8 5.8 0 0 1 187.999997 103.599998 Z" class="st8" style="fill: rgb(100, 1, 32);"/>
	<path class="st7" d="M145.8,723.7c9.8,4.7,16,2.9,18.3-2c2.3-4.8-0.1-10.8-9.9-15.5s-27.2-8.3-29.5-3.4&#10;&#9;&#9;C122.4,707.6,136,719,145.8,723.7z" style="fill: rgb(255, 171, 186);"/>
	<path d="M 156.8 716.5 A 4.3 4.3 0 0 1 152.5 720.8 A 4.3 4.3 0 0 1 148.2 716.5 A 4.3 4.3 0 0 1 152.5 712.2 A 4.3 4.3 0 0 1 156.8 716.5 Z" class="st8" style="fill: rgb(100, 1, 32);"/>
	<path class="st7" d="M83.4,500.2c9.8,4.7,16,2.9,18.3-2c2.3-4.8-0.1-10.8-9.9-15.5c-9.8-4.7-27.2-8.3-29.5-3.4&#10;&#9;&#9;S73.5,495.5,83.4,500.2z" style="fill: rgb(255, 171, 186);"/>
	<path d="M 94.399999 493 A 4.3 4.3 0 0 1 90.099998 497.3 A 4.3 4.3 0 0 1 85.799998 493 A 4.3 4.3 0 0 1 90.099998 488.7 A 4.3 4.3 0 0 1 94.399999 493 Z" class="st8" style="fill: rgb(100, 1, 32);"/>
	<path class="st9" d="M67.6,587l-2.5,18.2c-0.5,3.8-4.2,6.3-8,5.4l-15.5-3.8c-5.2-1.3-6.7-8-2.5-11.4l18-14.5&#10;&#9;&#9;C61.7,577.4,68.4,581.2,67.6,587z" style="fill: rgb(117, 231, 84);"/>
	<path d="M 61.499999 600.799988 A 4.7 4.7 0 0 1 56.799999 605.499988 A 4.7 4.7 0 0 1 52.099999 600.799988 A 4.7 4.7 0 0 1 56.799999 596.099988 A 4.7 4.7 0 0 1 61.499999 600.799988 Z" class="st10" style="fill: rgb(53, 149, 50);"/>
	<path class="st9" d="M175.3,859.6l25.3,10c5.3,2.1,7.6,8.3,5,13.3l-10.9,21c-3.7,7.1-13.9,6.9-17.2-0.4l-14.5-31&#10;&#9;&#9;C159.4,864.7,167.2,856.4,175.3,859.6z" style="fill: rgb(117, 231, 84);"/>
	<path d="M 198.099997 880 A 6.9 6.9 0 0 1 191.199997 886.9 A 6.9 6.9 0 0 1 184.299997 880 A 6.9 6.9 0 0 1 191.199997 873.1 A 6.9 6.9 0 0 1 198.099997 880 Z" class="st10" style="fill: rgb(53, 149, 50);"/>
	<path class="st11" d="M82.2,380.5c0-3.9-2.8-7.2-6.5-8c-0.8-3.7-4.1-6.5-8-6.5c-4.2,0-7.7,3.2-8.2,7.3c0,0,0,0-0.1,0&#10;&#9;&#9;c-4.6,0-8.2,3.7-8.2,8.2c0,3.5,2.1,6.4,5.2,7.6c0.8,3.8,4.1,6.6,8.1,6.6c1.1,0,2.2-0.2,3.2-0.7c1.5,1.8,3.8,2.9,6.3,2.9&#10;&#9;&#9;c4.6,0,8.2-3.7,8.2-8.2c0-1.7-0.5-3.3-1.4-4.6C81.7,383.8,82.2,382.2,82.2,380.5z" style="fill: rgb(156, 198, 244);"/>
	<path d="M 75.300003 384.5 A 5.5 5.5 0 0 1 69.800003 390 A 5.5 5.5 0 0 1 64.300003 384.5 A 5.5 5.5 0 0 1 69.800003 379 A 5.5 5.5 0 0 1 75.300003 384.5 Z" class="st12" style="fill: rgb(46, 69, 89);"/>
	<path class="st11" d="M187.6,663.6c3.9,0.8,7.6-1.3,9.1-4.8c3.8-0.1,7.1-2.8,7.9-6.6c0.8-4.1-1.6-8.2-5.5-9.4c0,0,0,0,0-0.1&#10;&#9;&#9;c0.9-4.5-2-8.8-6.5-9.7c-3.4-0.7-6.7,0.8-8.5,3.6c-3.8,0-7.3,2.7-8,6.6c-0.2,1.1-0.2,2.2,0,3.3c-2,1.1-3.6,3.1-4.1,5.6&#10;&#9;&#9;c-0.9,4.5,2,8.8,6.5,9.7c1.7,0.3,3.3,0.1,4.8-0.5C184.5,662.4,185.9,663.2,187.6,663.6z" style="fill: rgb(156, 198, 244);"/>
	<path d="M 191.600006 650.5 A 5.5 5.5 0 0 1 186.100006 656 A 5.5 5.5 0 0 1 180.600006 650.5 A 5.5 5.5 0 0 1 186.100006 645 A 5.5 5.5 0 0 1 191.600006 650.5 Z" class="st12" style="fill: rgb(46, 69, 89);"/>
	<path class="st13" d="M159.1,537.6l27.6,4.4c5,0.8,9-4,7.5-8.8l-5.7-17.4c-1.8-5.7-9.6-6.3-12.4-1.1l-0.9,1.6&#10;&#9;&#9;c-0.8,1.5-2.1,2.6-3.6,3.2l-13.8,5.1C151.3,526.9,152.3,536.5,159.1,537.6z" style="fill: rgb(255, 151, 86);"/>
	<path d="M 242.5 148.10000610351562 L 144.6999969482422 272 L 269 547.0999755859375 Z" class="st6" style="fill: rgb(54, 81, 91);"/>
	<path d="M 188.399997 533.299988 A 4.7 4.7 0 0 1 183.699997 537.999988 A 4.7 4.7 0 0 1 178.999997 533.299988 A 4.7 4.7 0 0 1 183.699997 528.599988 A 4.7 4.7 0 0 1 188.399997 533.299988 Z" class="st14" style="fill: rgb(160, 69, 0);"/>
	<path class="st13" d="M65.7,262.3l36.3,16.8c6.5,3,14-1.9,13.7-9.1l-1-26.1c-0.3-8.5-10.7-12.5-16.6-6.3l-1.8,1.9&#10;&#9;&#9;c-1.6,1.7-3.9,2.8-6.2,2.9l-21,1.6C59.1,244.6,56.7,258.1,65.7,262.3z" style="fill: rgb(255, 151, 86);"/>
	<path d="M 107.799998 266 A 6.7 6.7 0 0 1 101.099998 272.7 A 6.7 6.7 0 0 1 94.399999 266 A 6.7 6.7 0 0 1 101.099998 259.3 A 6.7 6.7 0 0 1 107.799998 266 Z" class="st14" style="fill: rgb(160, 69, 0);"/>
	<path class="st13" d="M43.8,883.1l13,24.8c2.3,4.5,8.6,4.9,11.5,0.8l10.6-14.9c3.4-4.9-0.6-11.5-6.5-10.6l-1.8,0.3&#10;&#9;&#9;c-1.6,0.2-3.3-0.1-4.7-1l-12.3-8.1C47.6,870.5,40.6,876.9,43.8,883.1z" style="fill: rgb(255, 151, 86);"/>
	<path d="M 66.499999 900.299988 A 4.7 4.7 0 0 1 61.799999 904.999988 A 4.7 4.7 0 0 1 57.099999 900.299988 A 4.7 4.7 0 0 1 61.799999 895.599988 A 4.7 4.7 0 0 1 66.499999 900.299988 Z" class="st14" style="fill: rgb(160, 69, 0);"/>
	<path d="M 0 610.9000244140625 L 116.30000305175781 799 L 0 886.9000244140625 Z" class="st6" style="fill: rgb(54, 81, 91);"/>
	<path class="st9" d="M181.5,259.5l11.9,14.1c2.5,2.9,1.9,7.4-1.3,9.5l-13.2,9c-4.4,3-10.4-0.4-10.1-5.7l1.3-23.1&#10;&#9;&#9;C170.4,257.4,177.7,255,181.5,259.5z" style="fill: rgb(117, 231, 84);"/>
	<path d="M 189.2 276.700012 A 4.7 4.7 0 0 1 184.5 281.400012 A 4.7 4.7 0 0 1 179.8 276.700012 A 4.7 4.7 0 0 1 184.5 272.000012 A 4.7 4.7 0 0 1 189.2 276.700012 Z" class="st10" style="fill: rgb(53, 149, 50);"/>
	<path class="st9" d="M24.3,764.5l15.1-1c3.2-0.2,5.8,2.4,5.7,5.5l-0.4,13.2c-0.1,4.4-5.3,6.8-8.8,4L21.2,774&#10;&#9;&#9;C17.5,770.9,19.4,764.8,24.3,764.5z" style="fill: rgb(117, 231, 84);"/>
	<path d="M 41.100001 770.900024 A 3.9 3.9 0 0 1 37.200001 774.800025 A 3.9 3.9 0 0 1 33.300001 770.900024 A 3.9 3.9 0 0 1 37.200001 767.000024 A 3.9 3.9 0 0 1 41.100001 770.900024 Z" class="st10" style="fill: rgb(53, 149, 50);"/>
	<path d="M 0 109.4000015258789 L 124.4000015258789 0 L 0 0 Z" class="st6" style="fill: rgb(54, 81, 91);"/>
	<g>
		<path class="st15" d="M293,54.6h81.6c9.6,0,15,11.1,9,18.6L342.8,125c-4.6,5.8-13.4,5.8-18,0l-40.8-51.7&#10;&#9;&#9;&#9;C278,65.7,283.4,54.6,293,54.6z" style="fill: rgb(242, 98, 61);"/>
		<path d="M 337.000012 91 A 12.3 12.3 0 0 1 324.700012 103.3 A 12.3 12.3 0 0 1 312.400012 91 A 12.3 12.3 0 0 1 324.700012 78.7 A 12.3 12.3 0 0 1 337.000012 91 Z" class="st16" style="fill: rgb(175, 70, 49);"/>
	</g>
	<g>
		<path class="st15" d="M354.6,510l30.2,38c3.6,4.5,0.4,11.1-5.3,11.1l-39.2,0.1c-4.4,0-7.7-4.1-6.7-8.4l9-38.2&#10;&#9;&#9;&#9;C343.9,507.1,351.1,505.5,354.6,510z" style="fill: rgb(242, 98, 61);"/>
		<path d="M 356.699994 538.200012 A 7.3 7.3 0 0 1 349.399994 545.500012 A 7.3 7.3 0 0 1 342.099994 538.200012 A 7.3 7.3 0 0 1 349.399994 530.900012 A 7.3 7.3 0 0 1 356.699994 538.200012 Z" class="st16" style="fill: rgb(175, 70, 49);"/>
	</g>
	<path d="M 518 536 A 33 33 0 0 1 485 569 A 33 33 0 0 1 452 536 A 33 33 0 0 1 485 503 A 33 33 0 0 1 518 536 Z" class="st17" style="fill: rgb(255, 246, 75);"/>
	<path d="M 501.2 553 A 10.2 10.2 0 0 1 491 563.2 A 10.2 10.2 0 0 1 480.8 553 A 10.2 10.2 0 0 1 491 542.8 A 10.2 10.2 0 0 1 501.2 553 Z" class="st18" style="fill: rgb(168, 103, 3);"/>
	<path d="M 480.799988 520.5 A 6 6 0 0 1 474.799988 526.5 A 6 6 0 0 1 468.799988 520.5 A 6 6 0 0 1 474.799988 514.5 A 6 6 0 0 1 480.799988 520.5 Z" class="st18" style="fill: rgb(168, 103, 3);"/>
	<path d="M 541.999989 57.099998 A 27.200001 27.200001 0 0 1 514.799988 84.299999 A 27.200001 27.200001 0 0 1 487.599987 57.099998 A 27.200001 27.200001 0 0 1 514.799988 29.899998 A 27.200001 27.200001 0 0 1 541.999989 57.099998 Z" class="st17" style="fill: rgb(255, 246, 75);"/>
	<path d="M 534.199987 67.099998 A 8.4 8.4 0 0 1 525.799988 75.499998 A 8.4 8.4 0 0 1 517.399988 67.099998 A 8.4 8.4 0 0 1 525.799988 58.699999 A 8.4 8.4 0 0 1 534.199987 67.099998 Z" class="st18" style="fill: rgb(168, 103, 3);"/>
	<path d="M 506.399994 49.799999 A 5 5 0 0 1 501.399994 54.799999 A 5 5 0 0 1 496.399994 49.799999 A 5 5 0 0 1 501.399994 44.799999 A 5 5 0 0 1 506.399994 49.799999 Z" class="st18" style="fill: rgb(168, 103, 3);"/>
	<path class="st19" d="M309.1,384.8l3.4,19.3c1.2,6.8,7.8,11.2,14.5,9.8l88.4-19.3c7-1.5,11.1-8.8,8.9-15.6l0,0&#10;&#9;&#9;c-1.6-5-6.3-8.4-11.5-8.4H321C313.5,370.6,307.8,377.4,309.1,384.8z" style="fill: rgb(168, 164, 136);"/>
	<path class="st20" d="M494,705.7l-5.2,10.1c-1.8,3.5-6.3,4.8-9.7,2.9l-45.5-26.1c-3.6-2.1-4.6-6.8-2.2-10.2h0&#10;&#9;&#9;c1.8-2.5,4.9-3.5,7.8-2.6l50.7,16C494.1,697.1,496,701.8,494,705.7z" style="fill: rgb(0, 149, 43);"/>
	<path class="st11" d="M375.9,788.6L375.9,788.6c0,3.7-1.5,7.2-4,9.7l-7.9,7.9c-9.5,9.5-1.1,25.7,12.1,23.3l30.9-5.4&#10;&#9;&#9;c9.9-1.7,14.6-13.1,9-21.3L401,780.8C393.4,769.6,375.9,775,375.9,788.6z" style="fill: rgb(156, 198, 244);"/>
	<path d="M 408.400012 809.900024 A 7.7 7.7 0 0 1 400.700012 817.600024 A 7.7 7.7 0 0 1 393.000012 809.900024 A 7.7 7.7 0 0 1 400.700012 802.200025 A 7.7 7.7 0 0 1 408.400012 809.900024 Z" class="st21" style="fill: rgb(74, 104, 127);"/>
	<path class="st11" d="M412.2,216.5L412.2,216.5c-1.7,2.2-4.1,3.6-6.9,3.9l-8.2,1c-10,1.2-12.4,14.6-3.5,19.3l20.7,11&#10;&#9;&#9;c6.6,3.5,14.6-1,15.1-8.4l1.2-19.8C431.2,213.3,418.4,208.5,412.2,216.5z" style="fill: rgb(156, 198, 244);"/>
	<path d="M 422.7 240.399994 A 5.7 5.7 0 0 1 417 246.099994 A 5.7 5.7 0 0 1 411.3 240.399994 A 5.7 5.7 0 0 1 417 234.699994 A 5.7 5.7 0 0 1 422.7 240.399994 Z" class="st21" style="fill: rgb(74, 104, 127);"/>
	<path d="M 474.79998779296875 803.2000122070312 L 296.5 960.9000244140625 L 297.79998779296875 980 L 393.79998779296875 980 Z" class="st4" style="fill: rgb(226, 222, 183);"/>
	<path class="st20" d="M304.5,380.2l3.4,19.3c1.2,6.8,7.8,11.2,14.5,9.8l88.4-19.3c7-1.5,11.1-8.8,8.9-15.6v0&#10;&#9;&#9;c-1.6-5-6.3-8.4-11.5-8.4h-91.8C308.9,366,303.2,372.8,304.5,380.2z" style="fill: rgb(0, 149, 43);"/>
	<path class="st22" d="M583,670.9L583,670.9c4.2-2.2,9.1-2.3,13.4-0.4l21.6,9.5c3.6,1.6,7.6,1.7,11.3,0.5l5.4-1.9&#10;&#9;&#9;c12.5-4.4,24.4,8,19.5,20.3l-8.3,21.1c-3.7,9.4-15.2,12.8-23.4,6.9l-41.4-29.7C571.7,690.5,572.8,676.2,583,670.9z" style="fill: rgb(0, 103, 91);"/>
	<path class="st22" d="M590.3,207.8L590.3,207.8c3.2-0.2,6.2,1.1,8.4,3.5l10.7,12c1.8,2,4.2,3.2,6.9,3.5l3.8,0.4&#10;&#9;&#9;c8.9,0.8,12.8,11.8,6.3,18l-11.1,10.7c-4.9,4.7-13,3.6-16.4-2.3l-17.2-30C577.9,216.7,582.5,208.2,590.3,207.8z" style="fill: rgb(0, 103, 91);"/>
	<path class="st22" d="M589.9,437.4L589.9,437.4c-0.4,3.2-2.1,6-4.8,7.7l-13.5,8.6c-2.2,1.4-3.9,3.7-4.5,6.2l-1,3.7&#10;&#9;&#9;c-2.3,8.7-13.7,10.7-18.8,3.3l-8.8-12.6c-3.9-5.6-1.5-13.4,4.9-15.8l32.3-12.1C583.1,423.6,590.8,429.6,589.9,437.4z" style="fill: rgb(0, 103, 91);"/>
	<path class="st23" d="M458.6,906L458.6,906c1.1-4.6,4.1-8.4,8.4-10.4l21.3-10.2c3.5-1.7,6.3-4.7,7.7-8.3l2.1-5.3&#10;&#9;&#9;c4.8-12.3,21.9-13.3,28.1-1.6l10.6,20c4.7,8.9-0.2,19.9-10,22.3l-49.4,12.1C466.2,927.3,456,917.2,458.6,906z" style="fill: rgb(255, 97, 0);"/>
	<path class="st24" d="M659.2,457.2l-14.7,23.8c-6.5,10.6-0.7,24.4,11.4,27.2l30.8,7.1c15.1,3.5,27.3-12.4,20.1-26.1l-16.2-30.8&#10;&#9;&#9;C684.2,445.8,666.6,445.2,659.2,457.2z" style="fill: rgb(255, 76, 48);"/>
	<path class="st25" d="M532.1,326l37.2,18.3c1.8,0.9,3.9,1.3,5.9,1.1l56.5-5.1c8.1-0.7,12.7-9.7,8.7-16.7v0&#10;&#9;&#9;c-1.4-2.5-3.8-4.3-6.5-5.1l-83.8-24.7c-4.2-1.2-8.8,0.1-11.6,3.4l-9.9,11.6C523.7,314.2,525.5,322.7,532.1,326z" style="fill: rgb(255, 218, 51);"/>
	<path class="st25" d="M630.5,843.1l19-12.6c0.9-0.6,1.7-1.5,2.2-2.5l13.2-28.2c1.9-4.1-1-8.7-5.5-8.7l0,0c-1.6,0-3.1,0.6-4.2,1.7&#10;&#9;&#9;l-34.9,32.9c-1.8,1.7-2.4,4.2-1.6,6.5l2.7,7.9C622.6,843.8,627.2,845.3,630.5,843.1z" style="fill: rgb(255, 218, 51);"/>
	<path class="st26" d="M631.1,85l13.8-10.2c6.4-4.8,15-5.5,22.1-1.8l8.3,4.3c5.7,2.9,9.7,8.3,10.9,14.6l6.7,34.6&#10;&#9;&#9;c0.3,1.3,0.6,2.6,1.1,3.8l9,22.6c4.5,11.2-1.4,23.8-12.8,27.6l0,0c-8.9,3-18.6-0.3-23.9-8.1l-40-58.9&#10;&#9;&#9;C620,104.3,622.1,91.7,631.1,85z" style="fill: rgb(23, 109, 78);"/>
	<path d="M 553 632.7999877929688 L 675.4000244140625 568.2999877929688 L 520.7999877929688 457.6000061035156 Z" class="st2" style="fill: rgb(35, 175, 128);"/>
	<path d="M 1053.9000244140625 207.8000030517578 L 913.0999755859375 258.79998779296875 L 829 438.1000061035156 L 1035.9000244140625 354.3999938964844 Z" class="st27" style="fill: rgb(188, 148, 36);"/>
	<g>
		<path class="st27" d="M1059.5,36.8h46.3c7,0,10.9,7.9,6.8,13.5l-8.7,11.6c-0.8,1-1.8,1.9-3,2.5l-21.2,10.6&#10;&#9;&#9;&#9;c-3.7,1.8-8.1,0.8-10.6-2.5l-16.4-22.2C1048.5,44.7,1052.5,36.8,1059.5,36.8z" style="fill: rgb(188, 148, 36);"/>
		<path class="st27" d="M784.5,22.1l33.7,31.8c5.1,4.8,2.5,13.3-4.4,14.5l-14.2,2.4c-1.3,0.2-2.6,0.1-3.9-0.2L773,63.7&#10;&#9;&#9;&#9;c-3.9-1.2-6.4-5-5.9-9.1l3.3-27.4C771.1,20.4,779.4,17.3,784.5,22.1z" style="fill: rgb(188, 148, 36);"/>
		<path class="st27" d="M854,108.2l10.9,14.2c1.6,2.1,1.6,5.1-0.2,7.2l-10.7,12.4c-2.5,2.9-7.1,2.6-9.1-0.7l-8.6-13.5&#10;&#9;&#9;&#9;c-1.2-1.9-1.2-4.3,0-6.1l8.3-13.1C846.8,105.3,851.6,105,854,108.2z" style="fill: rgb(188, 148, 36);"/>
		<path class="st27" d="M1009.8,153.3l-0.5,3.5c-0.3,1.8-1.1,3.4-2.4,4.6L984,183.7c-6,5.8-0.2,15.8,7.8,13.5l39.3-11.3&#10;&#9;&#9;&#9;c4.8-1.4,7.2-6.7,5.1-11.1l-11.1-23.7C1021.7,143.9,1011,145.5,1009.8,153.3z" style="fill: rgb(188, 148, 36);"/>
		<path class="st27" d="M833.2,281.9c-5,0.1-8,2.9-12.6,3s-7.7-2.7-12.7-2.6c-9.7,0.2-17.5,8.2-17.4,17.9&#10;&#9;&#9;&#9;c0.2,9.7,8.2,17.5,17.9,17.4c5-0.1,8-2.1,12.6-2.2c4.6-0.1,7.7,1.8,12.7,1.7c9.7-0.2,17.5-8.2,17.4-17.9&#10;&#9;&#9;&#9;C850.9,289.5,842.9,281.7,833.2,281.9z" style="fill: rgb(188, 148, 36);"/>
		<path class="st28" d="M930.5,348.3l-1.2,2.1c-0.6,1-1.5,1.8-2.6,2.3l-19.9,8.3c-5.2,2.2-4.1,9.9,1.6,10.4l27.4,2.6&#10;&#9;&#9;&#9;c3.3,0.3,6.1-2.4,5.9-5.7l-1.1-17.7C940.2,345.3,933.1,343.6,930.5,348.3z" style="fill: rgb(119, 90, 16);"/>
	</g>
	<path d="M 1035.9000244140625 354.3999938964844 L 1400 503 L 995.5999755859375 691 L 732.7999877929688 477 Z" class="st29" style="fill: rgb(36, 1, 61);"/>
	<path d="M 995.5999755859375 691 L 995.5999755859375 980 L 660.7999877929688 980 L 732.7999877929688 726.5 L 732.7999877929688 477 Z" class="st30" style="fill: rgb(66, 2, 104);"/>
	<path d="M 995.5999755859375 691 L 1400 503 L 1400 985.0999755859375 L 995.5999755859375 980 Z" class="st31" style="fill: rgb(177, 2, 255);"/>
	<path d="M 1053.9000244140625 207.8000030517578 L 1035.9000244140625 354.3999938964844 L 1400 503 L 1400 0 L 1269.9000244140625 0 Z" class="st32" style="fill: rgb(185, 56, 14);"/>
	<path class="st33" d="M1314.9,615.2l19-6.9c4.3-1.6,8.8,1.8,8.4,6.4l-3,42c-0.5,6.5-9.3,8.1-12,2.1l-15.9-35.2&#10;&#9;&#9;C1309.8,620.4,1311.5,616.4,1314.9,615.2z" style="fill: rgb(108, 255, 151);"/>
	<path d="M 1328.699975 621.599976 A 5.1 5.1 0 0 1 1323.599976 626.699975 A 5.1 5.1 0 0 1 1318.499976 621.599976 A 5.1 5.1 0 0 1 1323.599976 616.499976 A 5.1 5.1 0 0 1 1328.699975 621.599976 Z" class="st34" style="fill: rgb(0, 119, 15);"/>
	<path class="st35" d="M1146,752.7l-28.2,35c-5,6.2-1.9,15.5,5.8,17.5l15.2,3.8c3.5,0.9,7.1,0,9.8-2.4l18.4-16.1&#10;&#9;&#9;c2.1-1.8,4.8-2.8,7.6-2.7l0,0c10.4,0.4,15.4-12.6,7.4-19.3l-20.6-17.3C1156.8,747.3,1149.8,747.9,1146,752.7z" style="fill: rgb(243, 255, 78);"/>
	<path d="M 1161.500049 762.299988 A 5.7 5.7 0 0 1 1155.800049 767.999988 A 5.7 5.7 0 0 1 1150.100049 762.299988 A 5.7 5.7 0 0 1 1155.800049 756.599988 A 5.7 5.7 0 0 1 1161.500049 762.299988 Z" class="st36" style="fill: rgb(157, 160, 32);"/>
	<path class="st35" d="M950.4,432.5l-41.9,16.3c-7.4,2.9-9.4,12.5-3.6,18.1l11.3,10.9c2.6,2.5,6.2,3.5,9.7,2.8l24-4.8&#10;&#9;&#9;c2.7-0.5,5.6,0,7.9,1.4l0,0c8.8,5.5,19.6-3.3,16-13l-9.2-25.3C962.5,433.1,956.1,430.2,950.4,432.5z" style="fill: rgb(243, 255, 78);"/>
	<path d="M 959.799975 445.700012 A 5.7 5.7 0 0 1 954.099976 451.400012 A 5.7 5.7 0 0 1 948.399976 445.700012 A 5.7 5.7 0 0 1 954.099976 440.000012 A 5.7 5.7 0 0 1 959.799975 445.700012 Z" class="st36" style="fill: rgb(157, 160, 32);"/>
	<path class="st33" d="M1266.4,892h74.2c7.7,0,9.8,10.6,2.7,13.5l-54.6,22.5c-2.8,1.2-6,0.4-8-1.9l-19.6-22.5&#10;&#9;&#9;C1257.2,899.1,1260.4,892,1266.4,892z" style="fill: rgb(108, 255, 151);"/>
	<path d="M 1293.7 916 A 5.7 5.7 0 0 1 1288 921.7 A 5.7 5.7 0 0 1 1282.3 916 A 5.7 5.7 0 0 1 1288 910.3 A 5.7 5.7 0 0 1 1293.7 916 Z" class="st34" style="fill: rgb(0, 119, 15);"/>
	<path class="st37" d="M623.4,77.4l13.8-10.2c6.4-4.8,15-5.5,22.1-1.8l8.3,4.3c5.7,2.9,9.7,8.3,10.9,14.6l6.7,34.6&#10;&#9;&#9;c0.3,1.3,0.6,2.6,1.1,3.8l9,22.6c4.5,11.2-1.4,23.8-12.8,27.6l0,0c-8.9,3-18.6-0.3-23.9-8.1l-40-58.9&#10;&#9;&#9;C612.3,96.6,614.4,84.1,623.4,77.4z" style="fill: rgb(178, 255, 130);"/>
	<path class="st32" d="M1003.5,575l104.8,4.7c4.4,0.2,8.3,2.6,10.6,6.3v0c5.4,9.1-1.8,20.6-12.3,19.6l-43.4-4&#10;&#9;&#9;c-3.9-0.4-7.7,1.1-10.5,3.9l-24.6,25.2c-6.3,6.5-17.2,4.7-21-3.5l-15.9-33.6C987,584.6,993.7,574.5,1003.5,575z" style="fill: rgb(185, 56, 14);"/>
	<path class="st31" d="M799.1,743.6l51.2,55.3c7.4,8,3.3,20.9-7.3,23.2l-66.6,14.3c-10,2.1-18.8-6.8-16.6-16.7l15.5-69.6&#10;&#9;&#9;C777.7,739.1,791.5,735.3,799.1,743.6z" style="fill: rgb(177, 2, 255);"/>
	<path d="M 842 799.400024 A 11.5 11.5 0 0 1 830.5 810.900024 A 11.5 11.5 0 0 1 819 799.400024 A 11.5 11.5 0 0 1 830.5 787.900024 A 11.5 11.5 0 0 1 842 799.400024 Z" class="st30" style="fill: rgb(66, 2, 104);"/>
	<path d="M 1028 614.900024 A 7 7 0 0 1 1021 621.900024 A 7 7 0 0 1 1014 614.900024 A 7 7 0 0 1 1021 607.900024 A 7 7 0 0 1 1028 614.900024 Z" class="st38" style="fill: rgb(127, 34, 9);"/>
	<path d="M 953.700012 717.5 A 22 26.5 0 0 1 931.700012 744 A 22 26.5 0 0 1 909.700012 717.5 A 22 26.5 0 0 1 931.700012 691 A 22 26.5 0 0 1 953.700012 717.5 Z" class="st35" style="fill: rgb(243, 255, 78);"/>
	<path d="M 931.7 721.900024 A 8.7 10.4 0 0 1 923 732.300024 A 8.7 10.4 0 0 1 914.3 721.900024 A 8.7 10.4 0 0 1 923 711.500025 A 8.7 10.4 0 0 1 931.7 721.900024 Z" class="st36" style="fill: rgb(157, 160, 32);"/>
	<path d="M 1110.699951 938.200012 A 11 13.3 0 0 1 1099.699951 951.500012 A 11 13.3 0 0 1 1088.699951 938.200012 A 11 13.3 0 0 1 1099.699951 924.900012 A 11 13.3 0 0 1 1110.699951 938.200012 Z" class="st39" style="fill: rgb(255, 46, 5);"/>
	<path d="M 1108.3 940.400024 A 4.3 5.2 0 0 1 1104 945.600024 A 4.3 5.2 0 0 1 1099.7 940.400024 A 4.3 5.2 0 0 1 1104 935.200025 A 4.3 5.2 0 0 1 1108.3 940.400024 Z" class="st40" style="fill: rgb(157, 55, 0);"/>
	<path class="st41" d="M1342.6,270.3l21.6-7.8c8.4-3.1,16.9,4.4,14.9,13.2l-5.5,24c-2,8.7-12.8,11.8-19.1,5.5l-16.2-16.1&#10;&#9;&#9;C1332.6,283.1,1334.8,273.1,1342.6,270.3z" style="fill: rgb(117, 33, 10);"/>
	<path class="st41" d="M1239,132l11.9,19.7c4.6,7.7-1,17.5-10,17.2l-24.6-0.7c-8.9-0.2-14.1-10.2-9.1-17.7l12.7-19&#10;&#9;&#9;C1224.4,124.7,1234.7,124.9,1239,132z" style="fill: rgb(117, 33, 10);"/>
	<path class="st41" d="M1367.4,51.6l11.9,19.7c4.6,7.7-1,17.5-10,17.2l-24.6-0.7c-8.9-0.2-14.1-10.2-9.1-17.7l12.7-19&#10;&#9;&#9;C1352.9,44.3,1363.1,44.5,1367.4,51.6z" style="fill: rgb(117, 33, 10);"/>
	<path class="st41" d="M1129,307.2L1129,307.2c4.5-3.6,10.7-4.1,15.8-1.5l19.9,10.5c4.8,2.5,10.6,2.2,15-0.9l7.9-5.5&#10;&#9;&#9;c4.8-3.3,11.1-3.4,16-0.3l35.2,22.5c4.2,2.7,6.7,7.2,6.7,12.2v28c0,11.1-12.1,18.1-21.7,12.5l-93-53.8&#10;&#9;&#9;C1121.9,325.9,1121,313.5,1129,307.2z" style="fill: rgb(117, 33, 10);"/>
	<path d="M 1049 864.799988 A 16 19.299999 0 0 1 1033 884.099987 A 16 19.299999 0 0 1 1017 864.799988 A 16 19.299999 0 0 1 1033 845.499989 A 16 19.299999 0 0 1 1049 864.799988 Z" class="st39" style="fill: rgb(255, 46, 5);"/>
	<path d="M 1045.600049 868 A 6.3 7.6 0 0 1 1039.300049 875.6 A 6.3 7.6 0 0 1 1033.000049 868 A 6.3 7.6 0 0 1 1039.300049 860.4 A 6.3 7.6 0 0 1 1045.600049 868 Z" class="st40" style="fill: rgb(157, 55, 0);"/>
	
		<path d="M 1291.900024 529.5 A 22 26.5 0 0 1 1269.900024 556 A 22 26.5 0 0 1 1247.900024 529.5 A 22 26.5 0 0 1 1269.900024 503 A 22 26.5 0 0 1 1291.900024 529.5 Z" transform="matrix(0.5049 0.8632 -0.8632 0.5049 1085.7941 -833.9738)" class="st35" style="fill: rgb(243, 255, 78);"/>
	
		<path d="M 1288.600024 533.400024 A 8.7 10.4 0 0 1 1279.900024 543.800024 A 8.7 10.4 0 0 1 1271.200025 533.400024 A 8.7 10.4 0 0 1 1279.900024 523.000025 A 8.7 10.4 0 0 1 1288.600024 533.400024 Z" transform="matrix(0.5049 0.8632 -0.8632 0.5049 1094.0979 -840.7122)" class="st36" style="fill: rgb(157, 160, 32);"/>
	<g>
		<path class="st42" d="M1053,30.3h46.3c7,0,10.9,7.9,6.8,13.5l-8.7,11.6c-0.8,1-1.8,1.9-3,2.5l-21.2,10.6&#10;&#9;&#9;&#9;c-3.7,1.8-8.1,0.8-10.6-2.5l-16.4-22.2C1042,38.2,1046,30.3,1053,30.3z" style="fill: rgb(31, 165, 255);"/>
		<path class="st42" d="M778,15.6l33.7,31.8c5.1,4.8,2.5,13.3-4.4,14.5L793,64.3c-1.3,0.2-2.6,0.1-3.9-0.2l-22.7-6.9&#10;&#9;&#9;&#9;c-3.9-1.2-6.4-5-5.9-9.1l3.3-27.4C764.6,13.9,772.9,10.9,778,15.6z" style="fill: rgb(31, 165, 255);"/>
		<path class="st43" d="M847.5,101.7l10.9,14.2c1.6,2.1,1.6,5.1-0.2,7.2l-10.7,12.4c-2.5,2.9-7.1,2.6-9.1-0.7l-8.6-13.5&#10;&#9;&#9;&#9;c-1.2-1.9-1.2-4.3,0-6.1l8.3-13.1C840.3,98.8,845.1,98.6,847.5,101.7z" style="fill: rgb(199, 82, 65);"/>
		<path class="st44" d="M1003.3,146.8l-0.5,3.5c-0.3,1.8-1.1,3.4-2.4,4.6l-22.9,22.2c-6,5.8-0.2,15.8,7.8,13.5l39.3-11.3&#10;&#9;&#9;&#9;c4.8-1.4,7.2-6.7,5.1-11.1l-11.1-23.7C1015.2,137.4,1004.5,139,1003.3,146.8z" style="fill: rgb(255, 113, 16);"/>
		<path class="st42" d="M826.7,275.4c-5,0.1-8,2.9-12.6,3c-4.6,0.1-7.7-2.7-12.7-2.6c-9.7,0.2-17.5,8.2-17.4,17.9&#10;&#9;&#9;&#9;c0.2,9.7,8.2,17.5,17.9,17.4c5-0.1,8-2.1,12.6-2.2c4.6-0.1,7.7,1.8,12.7,1.7c9.7-0.2,17.5-8.2,17.4-17.9&#10;&#9;&#9;&#9;C844.4,283,836.4,275.2,826.7,275.4z" style="fill: rgb(31, 165, 255);"/>
		<path class="st45" d="M766,30.3c0,0,0.7,0.3,1.8,0.9c1.1,0.6,2.7,1.4,4.5,2.5c3.7,2.2,8.4,5.4,12.9,8.8c4.5,3.5,8.8,7.2,11.9,10.2&#10;&#9;&#9;&#9;c1.5,1.5,2.8,2.8,3.6,3.7c0.8,0.9,1.3,1.5,1.3,1.5s-0.7-0.3-1.8-0.9c-1.1-0.6-2.7-1.4-4.5-2.5c-3.7-2.2-8.4-5.4-12.9-8.9&#10;&#9;&#9;&#9;c-4.5-3.5-8.8-7.2-11.9-10.2c-1.5-1.5-2.8-2.8-3.6-3.7C766.5,30.9,766,30.3,766,30.3z" style="fill: rgb(0, 133, 154);"/>
		<path class="st45" d="M1053.5,48.3c0,0,0.7-0.2,1.9-0.6c1.2-0.3,3-0.8,5.1-1.2c4.2-0.9,9.8-1.7,15.5-2.1&#10;&#9;&#9;&#9;c5.7-0.5,11.3-0.6,15.6-0.4c2.1,0.1,3.9,0.2,5.2,0.3c1.3,0.1,2,0.2,2,0.2s-0.7,0.2-1.9,0.6c-1.2,0.3-3,0.8-5.1,1.2&#10;&#9;&#9;&#9;c-4.2,0.9-9.8,1.7-15.5,2.1c-5.7,0.5-11.3,0.6-15.6,0.4c-2.1-0.1-3.9-0.2-5.2-0.3C1054.2,48.4,1053.5,48.3,1053.5,48.3z" style="fill: rgb(0, 133, 154);"/>
		<path class="st45" d="M791.7,295.1c0,0,0.6-0.2,1.6-0.5c1-0.3,2.5-0.6,4.2-1c3.5-0.7,8.2-1.4,12.9-1.8c4.7-0.4,9.4-0.5,13-0.4&#10;&#9;&#9;&#9;c1.8,0,3.3,0.2,4.3,0.3c1,0.1,1.6,0.2,1.6,0.2s-0.6,0.2-1.6,0.5c-1,0.3-2.5,0.6-4.2,1c-3.5,0.7-8.2,1.4-12.9,1.8&#10;&#9;&#9;&#9;c-4.7,0.4-9.4,0.5-13,0.4c-1.8,0-3.3-0.2-4.3-0.3C792.3,295.2,791.7,295.1,791.7,295.1z" style="fill: rgb(0, 133, 154);"/>
		<path class="st46" d="M991.1,182.6c0,0,0.5-0.4,1.3-1c0.8-0.6,2-1.5,3.5-2.5c2.9-2,7-4.4,11.2-6.6c4.2-2.2,8.5-4.1,11.9-5.3&#10;&#9;&#9;&#9;c1.7-0.6,3.1-1.1,4.1-1.4c1-0.3,1.6-0.5,1.6-0.5s-0.5,0.4-1.3,1c-0.8,0.6-2,1.5-3.5,2.5c-2.9,2-7,4.4-11.2,6.6&#10;&#9;&#9;&#9;c-4.2,2.2-8.5,4.1-11.9,5.3c-1.7,0.6-3.1,1.1-4.1,1.4C991.7,182.4,991.1,182.6,991.1,182.6z" style="fill: rgb(94, 54, 0);"/>
		<path class="st47" d="M833.3,118.4c0,0,0.3-0.3,0.8-0.6c0.5-0.4,1.2-0.8,2.1-1.3c0.9-0.5,1.9-0.9,3-1.3c0.6-0.2,1.1-0.4,1.7-0.5&#10;&#9;&#9;&#9;c0.6-0.2,1.2-0.3,1.8-0.4c0.6-0.1,1.2-0.2,1.8-0.2c0.6-0.1,1.2-0.1,1.8-0.1c1.2,0,2.3,0.1,3.3,0.3c1,0.2,1.8,0.4,2.4,0.6&#10;&#9;&#9;&#9;c0.6,0.2,0.9,0.4,0.9,0.4s-0.3,0.3-0.8,0.6c-0.5,0.4-1.2,0.8-2.1,1.3c-0.9,0.5-1.9,0.9-3,1.3c-0.6,0.2-1.1,0.4-1.7,0.5&#10;&#9;&#9;&#9;c-0.6,0.2-1.2,0.3-1.8,0.4c-0.6,0.1-1.2,0.2-1.8,0.2c-0.6,0.1-1.2,0.1-1.8,0.1c-1.2,0-2.3-0.1-3.3-0.3c-1-0.2-1.8-0.4-2.4-0.6&#10;&#9;&#9;&#9;C833.7,118.6,833.3,118.4,833.3,118.4z" style="fill: rgb(130, 49, 41);"/>
	</g>
	<path class="st48" d="M924,341.8l-1.2,2.1c-0.6,1-1.5,1.8-2.6,2.3l-19.9,8.3c-5.2,2.2-4.1,9.9,1.6,10.4l27.4,2.6&#10;&#9;&#9;c3.3,0.3,6.1-2.4,5.9-5.7l-1.1-17.7C933.8,338.8,926.7,337.1,924,341.8z" style="fill: rgb(188, 236, 0);"/>
	<path class="st49" d="M903.5,361.7c0,0,0.3-0.3,0.9-0.8c0.6-0.5,1.5-1.1,2.6-1.9c1.1-0.7,2.4-1.6,3.7-2.4c1.4-0.8,2.9-1.7,4.4-2.5&#10;&#9;&#9;c0.8-0.4,1.5-0.8,2.3-1.2c0.8-0.4,1.5-0.7,2.3-1.1c1.5-0.7,2.9-1.3,4.1-1.7c1.2-0.5,2.3-0.8,3-1.1c0.7-0.2,1.2-0.3,1.2-0.3&#10;&#9;&#9;s-0.3,0.3-0.9,0.8c-0.6,0.5-1.5,1.1-2.6,1.9c-1.1,0.7-2.4,1.6-3.7,2.4c-0.7,0.4-1.4,0.9-2.2,1.3c-0.7,0.4-1.5,0.8-2.3,1.2&#10;&#9;&#9;c-1.5,0.8-3.1,1.6-4.6,2.2c-1.5,0.7-2.9,1.3-4.1,1.7c-1.2,0.5-2.3,0.8-3,1.1C903.9,361.6,903.5,361.7,903.5,361.7z" style="fill: rgb(48, 132, 0);"/>
	<path class="st33" d="M1119.6,297.8L1119.6,297.8c4.5-3.6,10.7-4.1,15.8-1.5l19.9,10.5c4.8,2.5,10.6,2.2,15-0.9l7.9-5.5&#10;&#9;&#9;c4.8-3.3,11.1-3.4,16-0.3l35.2,22.5c4.2,2.7,6.7,7.2,6.7,12.2v28c0,11.1-12.1,18.1-21.7,12.5l-93-53.8&#10;&#9;&#9;C1112.5,316.6,1111.6,304.2,1119.6,297.8z" style="fill: rgb(108, 255, 151);"/>
	<path class="st50" d="M1333.3,260.9l21.6-7.8c8.4-3.1,16.9,4.4,14.9,13.2l-5.5,24c-2,8.7-12.8,11.8-19.1,5.5l-16.2-16.1&#10;&#9;&#9;C1323.2,273.8,1325.5,263.8,1333.3,260.9z" style="fill: rgb(255, 251, 37);"/>
	<path class="st50" d="M1229.6,122.7l11.9,19.7c4.6,7.7-1,17.5-10,17.2l-24.6-0.7c-8.9-0.2-14.1-10.2-9.1-17.7l12.7-19&#10;&#9;&#9;C1215.1,115.3,1225.3,115.6,1229.6,122.7z" style="fill: rgb(255, 251, 37);"/>
	<path class="st33" d="M1358.1,42.3L1370,62c4.6,7.7-1,17.5-10,17.2l-24.6-0.7c-8.9-0.2-14.1-10.2-9.1-17.7l12.7-19&#10;&#9;&#9;C1343.5,34.9,1353.8,35.2,1358.1,42.3z" style="fill: rgb(108, 255, 151);"/>
</g>
</svg>